<svg width="113" height="30" viewBox="0 0 113 30" fill="none" xmlns="http://www.w3.org/2000/svg">
    <path fill-rule="evenodd" clip-rule="evenodd" d="M87.7646 16.8659C87.4435 18.4155 86.2203 19.0901 84.7394 19.1582C83.4521 19.2249 82.2916 18.0784 83.1289 16.7311C83.7739 15.5853 85.5766 15.315 86.671 15.315C87.121 15.315 87.6385 15.315 88.0878 15.315C87.9583 15.8542 87.8928 16.3274 87.7646 16.8659ZM87.3787 5.00262C84.6098 5.00262 82.4212 5.74403 80.7473 6.08104L80.2311 10.3273C81.0684 9.92291 83.7084 9.18217 85.8985 9.11409C88.0878 9.04669 89.3751 9.51782 88.9251 11.4057C82.4212 11.4057 78.0418 12.7538 77.1404 17.0007C75.8518 24.28 83.7739 24.0785 86.9287 20.91L86.5421 22.6624H92.3376L94.8495 11.0687C95.879 6.14776 91.4356 4.93522 87.3787 5.00262Z" fill="#26769C"/>
    <path fill-rule="evenodd" clip-rule="evenodd" d="M100.911 0L96 22H102.029L107 0H100.911Z" fill="#26769C"/>
    <path fill-rule="evenodd" clip-rule="evenodd" d="M72.7233 7.48958C72.3263 9.16121 70.6082 10.4985 68.9563 10.4985H65.9842L67.3059 4.48064H70.477C72.1281 4.48064 73.119 5.81795 72.7233 7.48958ZM72.9202 0H61.8885L57 22H63.4077L65.0595 14.711H69.6179C74.1093 14.711 77.8086 12.0364 78.8003 7.48958C79.9224 2.34028 76.0912 0 72.9202 0Z" fill="#26769C"/>
    <path fill-rule="evenodd" clip-rule="evenodd" d="M30.7666 16.8659C30.4449 18.4155 29.1559 19.0901 27.675 19.1582C26.3874 19.2249 25.2924 18.0784 26.1298 16.7311C26.7733 15.5853 28.5766 15.315 29.6074 15.315C30.1225 15.315 30.5733 15.315 31.089 15.315C30.9599 15.8542 30.8315 16.3274 30.7666 16.8659ZM30.3165 5.00262C27.5466 5.00262 25.3566 5.74403 23.7465 6.08104L23.2315 10.3273C24.0041 9.92291 26.6456 9.18217 28.8342 9.11409C31.0248 9.04669 32.3131 9.51782 31.9258 11.4057C25.4215 11.4057 21.0422 12.7538 20.1405 17.0007C18.8515 24.28 26.7733 24.0785 29.8643 20.91L29.479 22.6624H35.3392L37.8509 11.0687C38.8817 6.14776 34.3733 4.93522 30.3165 5.00262Z" fill="#24516F"/>
    <path fill-rule="evenodd" clip-rule="evenodd" d="M40.9383 5H46.948L47.9175 15.4462L53.7977 5H60L45.72 30H39L43.3936 22.6505L40.9383 5Z" fill="#24516F"/>
    <path fill-rule="evenodd" clip-rule="evenodd" d="M15.7207 7.48958C15.3246 9.16121 13.673 10.4985 12.0214 10.4985H8.98333L10.3705 4.48064H13.5408C15.1263 4.48064 16.1828 5.81795 15.7207 7.48958ZM15.9183 0H4.88735L0 22H6.47354L8.05835 14.711H12.6819C17.1071 14.711 20.8071 12.0364 21.7975 7.48958C22.9201 2.34028 19.1554 0 15.9183 0Z" fill="#24516F"/>
    <path fill-rule="evenodd" clip-rule="evenodd" d="M107.83 3V0.354396H107V0H109V0.354396H108.165V3H107.83Z" fill="#24516F"/>
    <path fill-rule="evenodd" clip-rule="evenodd" d="M110 3V0H110.622L111.368 2.12294C111.437 2.32074 111.487 2.46841 111.518 2.56662C111.554 2.4581 111.61 2.29739 111.686 2.08654L112.44 0H113V3H112.6V0.488324L111.683 3H111.308L110.399 0.447115V3H110Z" fill="#24516F"/>
</svg>
