<svg width="68" height="23" viewBox="0 0 68 23" fill="none" xmlns="http://www.w3.org/2000/svg">
    <path fill-rule="evenodd" clip-rule="evenodd" d="M29.5382 23H24L27.4613 1H33L29.5382 23Z" fill="#005C9C"/>
    <path fill-rule="evenodd" clip-rule="evenodd" d="M19.0835 1L13.842 16.1312L13.2224 12.8727L13.223 12.8739L11.3726 2.98144C11.3726 2.98144 11.1495 1 8.76485 1H0.101103L0 1.37192C0 1.37192 2.65013 1.94629 5.74985 3.88771L10.526 23H16.2538L25 1H19.0835Z" fill="#005C9C"/>
    <path fill-rule="evenodd" clip-rule="evenodd" d="M56.219 15.2178L59.0258 6.98432L60.6045 15.2178H56.219ZM62.0959 23H67L62.7242 1H58.4304C56.4472 1 55.9649 2.63952 55.9649 2.63952L48 23H53.5664L54.6803 19.7327H61.4698L62.0959 23Z" fill="#005C9C"/>
    <path fill-rule="evenodd" clip-rule="evenodd" d="M49.1891 5.49133L50 0.926687C50 0.926687 47.496 0 44.8856 0C42.0638 0 35.3632 1.20071 35.3632 7.036C35.3632 12.5273 43.2276 12.5956 43.2276 15.4785C43.2276 18.3615 36.1736 17.8464 33.846 16.0277L33 20.7993C33 20.7993 35.5385 22 39.419 22C43.2989 22 49.1534 20.0437 49.1534 14.7235C49.1534 9.19751 41.2178 8.683 41.2178 6.28044C41.2178 3.87787 46.7558 4.18658 49.1891 5.49133Z" fill="#005C9C"/>
    <path fill-rule="evenodd" clip-rule="evenodd" d="M14 13L12.0409 3.00248C12.0409 3.00248 11.8047 1 9.27991 1H0.107044L0 1.37587C0 1.37587 4.40912 2.28523 8.63885 5.6895C12.6814 8.9439 14 13 14 13Z" fill="#EE9F3F"/>
</svg>
