<svg width="40" height="40" viewBox="0 0 40 40" fill="none" xmlns="http://www.w3.org/2000/svg">
    <path fill-rule="evenodd" clip-rule="evenodd" d="M20 40C31.0457 40 40 31.0457 40 20C40 8.9543 31.0457 0 20 0C8.9543 0 0 8.9543 0 20C0 31.0457 8.9543 40 20 40ZM27.095 30.324H12.229C10.998 30.324 10 29.326 10 28.094V13.229C10 11.998 10.998 11 12.229 11H27.095C28.326 11 29.324 11.998 29.324 13.229V28.094C29.324 29.326 28.326 30.324 27.095 30.324ZM25.413 19.175H27.095V27.351C27.095 27.761 26.762 28.094 26.351 28.094H12.973C12.562 28.094 12.229 27.761 12.229 27.351V19.175H13.911C13.789 19.65 13.716 20.148 13.716 20.662C13.716 23.946 16.378 26.608 19.662 26.608C22.946 26.608 25.608 23.946 25.608 20.662C25.608 20.148 25.535 19.65 25.413 19.175ZM27.095 13.972C27.095 13.562 26.762 13.229 26.351 13.229H24.122C23.711 13.229 23.379 13.562 23.379 13.972V16.202C23.379 16.613 23.711 16.945 24.122 16.945H26.351C26.762 16.945 27.095 16.613 27.095 16.202V13.972ZM15.946 20.662C15.946 18.609 17.609 16.945 19.662 16.945C21.714 16.945 23.379 18.609 23.379 20.662C23.379 22.714 21.714 24.378 19.662 24.378C17.609 24.378 15.946 22.714 15.946 20.662Z" fill="#EAEAEA"/>
</svg>
