<svg width="229" height="72" viewBox="0 0 229 72" fill="none" xmlns="http://www.w3.org/2000/svg">
    <path d="M38.512 44.288C37.184 44.288 35.896 44.112 34.648 43.76C33.416 43.392 32.424 42.92 31.672 42.344L32.992 39.416C33.712 39.944 34.568 40.368 35.56 40.688C36.552 41.008 37.544 41.168 38.536 41.168C39.64 41.168 40.456 41.008 40.984 40.688C41.512 40.352 41.776 39.912 41.776 39.368C41.776 38.968 41.616 38.64 41.296 38.384C40.992 38.112 40.592 37.896 40.096 37.736C39.616 37.576 38.96 37.4 38.128 37.208C36.848 36.904 35.8 36.6 34.984 36.296C34.168 35.992 33.464 35.504 32.872 34.832C32.296 34.16 32.008 33.264 32.008 32.144C32.008 31.168 32.272 30.288 32.8 29.504C33.328 28.704 34.12 28.072 35.176 27.608C36.248 27.144 37.552 26.912 39.088 26.912C40.16 26.912 41.208 27.04 42.232 27.296C43.256 27.552 44.152 27.92 44.92 28.4L43.72 31.352C42.168 30.472 40.616 30.032 39.064 30.032C37.976 30.032 37.168 30.208 36.64 30.56C36.128 30.912 35.872 31.376 35.872 31.952C35.872 32.528 36.168 32.96 36.76 33.248C37.368 33.52 38.288 33.792 39.52 34.064C40.8 34.368 41.848 34.672 42.664 34.976C43.48 35.28 44.176 35.76 44.752 36.416C45.344 37.072 45.64 37.96 45.64 39.08C45.64 40.04 45.368 40.92 44.824 41.72C44.296 42.504 43.496 43.128 42.424 43.592C41.352 44.056 40.048 44.288 38.512 44.288ZM69.7047 27.2V44H65.8167V37.112H58.1847V44H54.2967V27.2H58.1847V33.824H65.8167V27.2H69.7047ZM87.8155 44.288C86.0715 44.288 84.4955 43.912 83.0875 43.16C81.6955 42.408 80.5995 41.376 79.7995 40.064C79.0155 38.736 78.6235 37.248 78.6235 35.6C78.6235 33.952 79.0155 32.472 79.7995 31.16C80.5995 29.832 81.6955 28.792 83.0875 28.04C84.4955 27.288 86.0715 26.912 87.8155 26.912C89.5595 26.912 91.1275 27.288 92.5195 28.04C93.9115 28.792 95.0075 29.832 95.8075 31.16C96.6075 32.472 97.0075 33.952 97.0075 35.6C97.0075 37.248 96.6075 38.736 95.8075 40.064C95.0075 41.376 93.9115 42.408 92.5195 43.16C91.1275 43.912 89.5595 44.288 87.8155 44.288ZM87.8155 40.976C88.8075 40.976 89.7035 40.752 90.5035 40.304C91.3035 39.84 91.9275 39.2 92.3755 38.384C92.8395 37.568 93.0715 36.64 93.0715 35.6C93.0715 34.56 92.8395 33.632 92.3755 32.816C91.9275 32 91.3035 31.368 90.5035 30.92C89.7035 30.456 88.8075 30.224 87.8155 30.224C86.8235 30.224 85.9275 30.456 85.1275 30.92C84.3275 31.368 83.6955 32 83.2315 32.816C82.7835 33.632 82.5595 34.56 82.5595 35.6C82.5595 36.64 82.7835 37.568 83.2315 38.384C83.6955 39.2 84.3275 39.84 85.1275 40.304C85.9275 40.752 86.8235 40.976 87.8155 40.976ZM113.202 27.2C114.69 27.2 115.978 27.448 117.066 27.944C118.17 28.44 119.018 29.144 119.61 30.056C120.202 30.968 120.498 32.048 120.498 33.296C120.498 34.528 120.202 35.608 119.61 36.536C119.018 37.448 118.17 38.152 117.066 38.648C115.978 39.128 114.69 39.368 113.202 39.368H109.818V44H105.93V27.2H113.202ZM112.986 36.2C114.154 36.2 115.042 35.952 115.65 35.456C116.258 34.944 116.562 34.224 116.562 33.296C116.562 32.352 116.258 31.632 115.65 31.136C115.042 30.624 114.154 30.368 112.986 30.368H109.818V36.2H112.986ZM144.561 44L144.537 33.92L139.593 42.224H137.841L132.921 34.136V44H129.273V27.2H132.489L138.777 37.64L144.969 27.2H148.161L148.209 44H144.561ZM169.259 40.4H161.459L159.971 44H155.987L163.475 27.2H167.315L174.827 44H170.747L169.259 40.4ZM168.035 37.448L165.371 31.016L162.707 37.448H168.035ZM185.206 30.368H179.83V27.2H194.47V30.368H189.094V44H185.206V30.368ZM215.57 40.88V44H202.562V27.2H215.258V30.32H206.426V33.968H214.226V36.992H206.426V40.88H215.57Z" fill="white"/>
</svg>
