<svg width="229" height="72" viewBox="0 0 229 72" fill="none" xmlns="http://www.w3.org/2000/svg">
    <path d="M38.512 45.288C37.184 45.288 35.896 45.112 34.648 44.76C33.416 44.392 32.424 43.92 31.672 43.344L32.992 40.416C33.712 40.944 34.568 41.368 35.56 41.688C36.552 42.008 37.544 42.168 38.536 42.168C39.64 42.168 40.456 42.008 40.984 41.688C41.512 41.352 41.776 40.912 41.776 40.368C41.776 39.968 41.616 39.64 41.296 39.384C40.992 39.112 40.592 38.896 40.096 38.736C39.616 38.576 38.96 38.4 38.128 38.208C36.848 37.904 35.8 37.6 34.984 37.296C34.168 36.992 33.464 36.504 32.872 35.832C32.296 35.16 32.008 34.264 32.008 33.144C32.008 32.168 32.272 31.288 32.8 30.504C33.328 29.704 34.12 29.072 35.176 28.608C36.248 28.144 37.552 27.912 39.088 27.912C40.16 27.912 41.208 28.04 42.232 28.296C43.256 28.552 44.152 28.92 44.92 29.4L43.72 32.352C42.168 31.472 40.616 31.032 39.064 31.032C37.976 31.032 37.168 31.208 36.64 31.56C36.128 31.912 35.872 32.376 35.872 32.952C35.872 33.528 36.168 33.96 36.76 34.248C37.368 34.52 38.288 34.792 39.52 35.064C40.8 35.368 41.848 35.672 42.664 35.976C43.48 36.28 44.176 36.76 44.752 37.416C45.344 38.072 45.64 38.96 45.64 40.08C45.64 41.04 45.368 41.92 44.824 42.72C44.296 43.504 43.496 44.128 42.424 44.592C41.352 45.056 40.048 45.288 38.512 45.288ZM67.7047 28.2V45H63.8167V38.112H56.1847V45H52.2967V28.2H56.1847V34.824H63.8167V28.2H67.7047ZM83.8155 45.288C82.0715 45.288 80.4955 44.912 79.0875 44.16C77.6955 43.408 76.5995 42.376 75.7995 41.064C75.0155 39.736 74.6235 38.248 74.6235 36.6C74.6235 34.952 75.0155 33.472 75.7995 32.16C76.5995 30.832 77.6955 29.792 79.0875 29.04C80.4955 28.288 82.0715 27.912 83.8155 27.912C85.5595 27.912 87.1275 28.288 88.5195 29.04C89.9115 29.792 91.0075 30.832 91.8075 32.16C92.6075 33.472 93.0075 34.952 93.0075 36.6C93.0075 38.248 92.6075 39.736 91.8075 41.064C91.0075 42.376 89.9115 43.408 88.5195 44.16C87.1275 44.912 85.5595 45.288 83.8155 45.288ZM83.8155 41.976C84.8075 41.976 85.7035 41.752 86.5035 41.304C87.3035 40.84 87.9275 40.2 88.3755 39.384C88.8395 38.568 89.0715 37.64 89.0715 36.6C89.0715 35.56 88.8395 34.632 88.3755 33.816C87.9275 33 87.3035 32.368 86.5035 31.92C85.7035 31.456 84.8075 31.224 83.8155 31.224C82.8235 31.224 81.9275 31.456 81.1275 31.92C80.3275 32.368 79.6955 33 79.2315 33.816C78.7835 34.632 78.5595 35.56 78.5595 36.6C78.5595 37.64 78.7835 38.568 79.2315 39.384C79.6955 40.2 80.3275 40.84 81.1275 41.304C81.9275 41.752 82.8235 41.976 83.8155 41.976ZM107.202 28.2C108.69 28.2 109.978 28.448 111.066 28.944C112.17 29.44 113.018 30.144 113.61 31.056C114.202 31.968 114.498 33.048 114.498 34.296C114.498 35.528 114.202 36.608 113.61 37.536C113.018 38.448 112.17 39.152 111.066 39.648C109.978 40.128 108.69 40.368 107.202 40.368H103.818V45H99.9295V28.2H107.202ZM106.986 37.2C108.154 37.2 109.042 36.952 109.65 36.456C110.258 35.944 110.562 35.224 110.562 34.296C110.562 33.352 110.258 32.632 109.65 32.136C109.042 31.624 108.154 31.368 106.986 31.368H103.818V37.2H106.986ZM136.561 45L136.537 34.92L131.593 43.224H129.841L124.921 35.136V45H121.273V28.2H124.489L130.777 38.64L136.969 28.2H140.161L140.209 45H136.561ZM159.259 41.4H151.459L149.971 45H145.987L153.475 28.2H157.315L164.827 45H160.747L159.259 41.4ZM158.035 38.448L155.371 32.016L152.707 38.448H158.035ZM173.206 31.368H167.83V28.2H182.47V31.368H177.094V45H173.206V31.368ZM201.57 41.88V45H188.562V28.2H201.258V31.32H192.426V34.968H200.226V37.992H192.426V41.88H201.57Z" fill="#F62F5E"/>
</svg>
