<svg width="20" height="20" viewBox="0 0 20 20" fill="none" xmlns="http://www.w3.org/2000/svg">
    <path d="M5 6C3.34315 6 2 7.34315 2 9H4C4 8.44772 4.44772 8 5 8V6ZM8 9C8 7.34315 6.65685 6 5 6V8C5.55228 8 6 8.44772 6 9H8ZM5 12C6.65685 12 8 10.6569 8 9H6C6 9.55228 5.55228 10 5 10V12ZM2 9C2 10.6569 3.34315 12 5 12V10C4.44772 10 4 9.55228 4 9H2ZM10 6C8.34315 6 7 7.34315 7 9H9C9 8.44772 9.44772 8 10 8V6ZM13 9C13 7.34315 11.6569 6 10 6V8C10.5523 8 11 8.44772 11 9H13ZM10 12C11.6569 12 13 10.6569 13 9H11C11 9.55228 10.5523 10 10 10V12ZM7 9C7 10.6569 8.34315 12 10 12V10C9.44772 10 9 9.55228 9 9H7ZM14 9C14 8.44772 14.4477 8 15 8V6C13.3431 6 12 7.34315 12 9H14ZM15 10C14.4477 10 14 9.55228 14 9H12C12 10.6569 13.3431 12 15 12V10ZM16 9C16 9.55228 15.5523 10 15 10V12C16.6569 12 18 10.6569 18 9H16ZM15 8C15.5523 8 16 8.44772 16 9H18C18 7.34315 16.6569 6 15 6V8Z" fill="#2E2E2E"/>
</svg>
