<svg width="40" height="40" viewBox="0 0 40 40" fill="none" xmlns="http://www.w3.org/2000/svg">
    <path fill-rule="evenodd" clip-rule="evenodd" d="M40 20C40 31.0457 31.0457 40 20 40C8.9543 40 0 31.0457 0 20C0 8.9543 8.9543 0 20 0C31.0457 0 40 8.9543 40 20ZM20.151 30.302C25.757 30.302 30.302 25.757 30.302 20.151C30.302 14.544 25.757 10 20.151 10C14.545 10 10 14.544 10 20.151C10 24.308 12.5 27.878 16.076 29.448C16.048 28.74 16.071 27.889 16.253 27.118C16.448 26.293 17.559 21.586 17.559 21.586C17.559 21.586 17.235 20.938 17.235 19.98C17.235 18.476 18.107 17.352 19.193 17.352C20.116 17.352 20.562 18.046 20.562 18.876C20.562 19.468 20.3211 20.2475 20.0675 21.0683C19.9235 21.5342 19.7754 22.0133 19.665 22.479C19.411 23.555 20.205 24.434 21.268 24.434C23.191 24.434 24.486 21.964 24.486 19.037C24.486 16.812 22.988 15.147 20.262 15.147C17.183 15.147 15.265 17.443 15.265 20.008C15.265 20.892 15.526 21.516 15.934 21.999C16.122 22.221 16.148 22.31 16.08 22.565C16.0523 22.6707 16.0045 22.8601 15.9598 23.0369C15.9255 23.173 15.893 23.3016 15.873 23.379C15.806 23.637 15.597 23.728 15.365 23.633C13.946 23.054 13.286 21.501 13.286 19.755C13.286 16.872 15.718 13.414 20.541 13.414C24.417 13.414 26.967 16.219 26.967 19.229C26.967 23.211 24.754 26.186 21.49 26.186C20.394 26.186 19.363 25.594 19.01 24.921C19.01 24.921 18.421 27.26 18.296 27.711C18.081 28.494 17.66 29.276 17.274 29.886C18.187 30.156 19.152 30.302 20.151 30.302Z" fill="#EAEAEA"/>
</svg>
