<svg width="20" height="20" viewBox="0 0 20 20" fill="none" xmlns="http://www.w3.org/2000/svg">
    <path fill-rule="evenodd" clip-rule="evenodd" d="M12.5226 5.91258C12.7023 6.49101 13.2162 6.88442 13.7992 6.88442H19.0552C19.9694 6.88442 20.3484 8.10836 19.609 8.6695L15.3566 11.9022C14.8863 12.261 14.6901 12.8943 14.8698 13.4728L16.4933 18.703C16.776 19.6128 15.7811 20.3691 15.0408 19.807L10.7884 16.5753C10.3191 16.2165 9.68176 16.2165 9.21056 16.5753L4.95811 19.807C4.21974 20.3691 3.22391 19.6128 3.50663 18.703L5.13105 13.4728C5.31078 12.8943 5.11453 12.261 4.64236 11.9022L0.390882 8.6695C-0.349435 8.10836 0.0323822 6.88442 0.945634 6.88442H6.20266C6.78267 6.88442 7.29856 6.49101 7.4783 5.91258L9.10272 0.682368C9.38544 -0.227456 10.6154 -0.227456 10.8981 0.682368L12.5226 5.91258Z" fill="#FFC94F"/>
</svg>
