<svg width="40" height="40" viewBox="0 0 40 40" fill="none" xmlns="http://www.w3.org/2000/svg">
    <path fill-rule="evenodd" clip-rule="evenodd" d="M40 20C40 31.0457 31.0457 40 20 40C8.9543 40 0 31.0457 0 20C0 8.9543 8.9543 0 20 0C31.0457 0 40 8.9543 40 20ZM27.685 17.419C27.685 17.247 27.681 17.076 27.674 16.906C28.447 16.348 29.118 15.651 29.649 14.857C28.939 15.172 28.176 15.385 27.375 15.48C28.193 14.99 28.821 14.214 29.116 13.29C28.351 13.744 27.504 14.073 26.602 14.251C25.88 13.481 24.851 13 23.712 13C21.525 13 19.753 14.773 19.753 16.959C19.753 17.27 19.788 17.572 19.855 17.862C16.565 17.697 13.648 16.12 11.695 13.725C11.354 14.31 11.159 14.99 11.159 15.716C11.159 17.089 11.858 18.301 12.92 19.011C12.271 18.99 11.661 18.812 11.127 18.516V18.566C11.127 20.484 12.491 22.084 14.302 22.448C13.97 22.538 13.62 22.587 13.259 22.587C13.004 22.587 12.756 22.562 12.515 22.515C13.018 24.088 14.48 25.233 16.213 25.265C14.858 26.327 13.151 26.96 11.296 26.96C10.976 26.96 10.661 26.941 10.351 26.905C12.104 28.028 14.185 28.683 16.421 28.683C23.703 28.683 27.685 22.651 27.685 17.419Z" fill="#EAEAEA"/>
</svg>
